<?xml version="1.0" encoding="UTF-8" standalone="no"?>
<!-- Created with Inkscape (http://www.inkscape.org/) -->

<svg
   width="200mm"
   height="200mm"
   viewBox="0 0 200 200"
   version="1.1"
   id="svg1"
   inkscape:export-filename="logovector.svg"
   inkscape:export-xdpi="96"
   inkscape:export-ydpi="96"
   xmlns:inkscape="http://www.inkscape.org/namespaces/inkscape"
   xmlns:sodipodi="http://sodipodi.sourceforge.net/DTD/sodipodi-0.dtd"
   xmlns="http://www.w3.org/2000/svg"
   xmlns:svg="http://www.w3.org/2000/svg">
  <sodipodi:namedview
     id="namedview1"
     pagecolor="#ffffff"
     bordercolor="#000000"
     borderopacity="0.25"
     inkscape:showpageshadow="2"
     inkscape:pageopacity="0.0"
     inkscape:pagecheckerboard="0"
     inkscape:deskcolor="#d1d1d1"
     inkscape:document-units="mm" />
  <defs
     id="defs1">
    <inkscape:path-effect
       effect="fillet_chamfer"
       id="path-effect2"
       is_visible="true"
       lpeversion="1"
       nodesatellites_param="F,0,0,1,0,0,0,1 @ F,0,0,1,0,0,0,1 @ F,0,0,1,0,0,0,1 @ F,0,0,1,0,0,0,1 @ F,0,0,1,0,0,0,1 @ F,0,0,1,0,0,0,1 @ F,0,0,1,0,0,0,1 @ F,0,0,1,0,0,0,1 @ F,0,0,1,0,0,0,1 @ F,0,0,1,0,0,0,1 @ F,0,0,1,0,0,0,1 @ F,0,0,1,0,0,0,1 @ F,0,0,1,0,0,0,1 @ F,0,0,1,0,0,0,1 @ F,0,0,1,0,0,0,1 @ F,0,0,1,0,0,0,1 @ F,0,0,1,0,0,0,1 @ F,0,0,1,0,0,0,1 @ F,0,0,1,0,0,0,1 @ F,0,0,1,0,0,0,1 @ F,0,0,1,0,0,0,1 @ F,0,0,1,0,0,0,1 @ F,0,0,1,0,0,0,1 | F,0,0,1,0,0,0,1 @ F,0,0,1,0,0,0,1 @ F,0,0,1,0,0,0,1 @ F,0,0,1,0,0,0,1 | F,0,0,1,0,0,0,1 @ F,0,0,1,0,0,0,1 @ F,0,0,1,0,0,0,1 @ F,0,0,1,0,0,0,1 @ F,0,0,1,0,0,0,1 | F,0,0,1,0,0,0,1 @ F,0,0,1,0,0,0,1 @ F,0,0,1,0,0,0,1 @ F,0,0,1,0,0,0,1 @ F,0,0,1,0,0,0,1 @ F,0,0,1,0,0,0,1 @ F,0,0,1,0,0,0,1 @ F,0,0,1,0,0,0,1 @ F,0,0,1,0,0,0,1 @ F,0,0,1,0,0,0,1 | F,0,0,1,0,0.014170971,0,1 @ F,0,0,1,0,0,0,1 @ F,0,0,1,0,0,0,1 @ F,0,0,1,0,0,0,1 @ F,0,0,1,0,0,0,1 @ F,0,0,1,0,0,0,1 @ F,0,0,1,0,0,0,1 @ F,0,0,1,0,0,0,1 @ F,0,0,1,0,0,0,1 @ F,0,0,1,0,0,0,1"
       radius="0"
       unit="px"
       method="auto"
       mode="F"
       chamfer_steps="1"
       flexible="false"
       use_knot_distance="true"
       apply_no_radius="true"
       apply_with_radius="true"
       only_selected="false"
       hide_knots="false" />
  </defs>
  <g
     inkscape:label="Capa 1"
     inkscape:groupmode="layer"
     id="layer1">
    <path
       style="fill:#000000;fill-opacity:1"
       d="m 77.285087,216.32867 c -1.496095,-1.49844 -2.784979,-2.68438 -2.864185,-2.63542 -0.07921,0.049 -0.144011,0.30395 -0.144011,0.56667 0,0.37312 0.42467,0.90102 1.940277,2.41193 1.067153,1.06384 1.940278,1.99514 1.940278,2.06956 0,0.0744 -1.023383,0.1353 -2.274184,0.1353 -1.911041,0 -2.29128,-0.0445 -2.38125,-0.27901 -0.05889,-0.15346 -0.107066,-2.88218 -0.107066,-6.06382 0,-4.98355 0.03747,-5.81591 0.270549,-6.00935 0.231199,-0.19187 0.713144,0.21545 3.313663,2.80063 1.673713,1.66384 3.116755,3.02516 3.20676,3.02516 0.09001,0 1.533048,-1.36132 3.206761,-3.02516 2.612647,-2.59723 3.081707,-2.99313 3.315947,-2.79873 0.23815,0.19764 0.26694,0.99165 0.22646,6.24426 l -0.0464,6.01782 -2.337153,0.0492 c -1.285434,0.0271 -2.337152,-0.014 -2.337152,-0.0912 0,-0.0772 0.873125,-1.01084 1.940277,-2.07468 1.678818,-1.67361 1.940278,-2.01192 1.940278,-2.51054 0,-0.31695 -0.0564,-0.57627 -0.12538,-0.57627 -0.069,0 -1.364398,1.23031 -2.878763,2.73403 -1.514364,1.50371 -2.828124,2.73403 -2.919466,2.73403 -0.09134,0 -1.390154,-1.226 -2.88625,-2.72443 z m -1.244308,1.57396 c 0,-0.22353 -1.467781,-1.65755 -1.607924,-1.57094 -0.181132,0.11195 -0.212403,1.37145 -0.03837,1.54548 0.13779,0.13779 1.646296,0.16112 1.646296,0.0255 z m 10.020207,-0.74571 c 0.0373,-0.51556 -0.0155,-0.74966 -0.16895,-0.74966 -0.25033,0 -1.560979,1.22298 -1.560979,1.45658 0,0.0826 0.377032,0.12606 0.837848,0.0965 l 0.837851,-0.0538 z m -2.832359,-2.21328 c 2.525579,-2.5213 2.866319,-2.9294 2.866319,-3.43295 0,-0.32102 -0.0911,-0.57148 -0.20782,-0.57148 -0.11431,0 -1.3875,1.17078 -2.829321,2.60173 -1.441821,1.43096 -2.72706,2.60174 -2.856087,2.60174 -0.129027,0 -1.441488,-1.17078 -2.916581,-2.60174 -1.475092,-1.43095 -2.755394,-2.60173 -2.845116,-2.60173 -0.08972,0 -0.16313,0.25709 -0.16313,0.57131 0,0.50296 0.342742,0.91454 2.864314,3.43959 1.575373,1.57754 2.944592,2.86528 3.042709,2.86163 0.09812,-0.004 1.468237,-1.29429 3.044713,-2.8681 z m 2.866232,-6.17742 c -0.0033,-0.26769 -0.09918,-0.47285 -0.222603,-0.47285 -0.12248,0 -1.411333,1.19063 -2.864115,2.64584 -1.452783,1.45521 -2.722751,2.64583 -2.822151,2.64583 -0.0994,0 -1.404807,-1.22599 -2.900903,-2.72443 -1.496095,-1.49843 -2.784979,-2.68437 -2.864185,-2.63542 -0.07921,0.0489 -0.144011,0.34195 -0.144011,0.65111 0,0.49572 0.348966,0.89982 2.954513,3.42128 l 2.954514,2.85917 2.954514,-2.94467 c 2.369286,-2.3614 2.941211,-3.02111 2.954283,-3.4177 2.54e-4,-0.008 2.4e-4,-0.0203 1.44e-4,-0.0282 z"
       id="path2"
       inkscape:original-d="m 77.285087,216.32867 c -1.496095,-1.49844 -2.784979,-2.68438 -2.864185,-2.63542 -0.07921,0.049 -0.144011,0.30395 -0.144011,0.56667 0,0.37312 0.42467,0.90102 1.940277,2.41193 1.067153,1.06384 1.940278,1.99514 1.940278,2.06956 0,0.0744 -1.023383,0.1353 -2.274184,0.1353 -1.911041,0 -2.29128,-0.0445 -2.38125,-0.27901 -0.05889,-0.15346 -0.107066,-2.88218 -0.107066,-6.06382 0,-4.98355 0.03747,-5.81591 0.270549,-6.00935 0.231199,-0.19187 0.713144,0.21545 3.313663,2.80063 1.673713,1.66384 3.116755,3.02516 3.20676,3.02516 0.09001,0 1.533048,-1.36132 3.206761,-3.02516 2.612647,-2.59723 3.081707,-2.99313 3.315947,-2.79873 0.23815,0.19764 0.26694,0.99165 0.22646,6.24426 l -0.0464,6.01782 -2.337153,0.0492 c -1.285434,0.0271 -2.337152,-0.014 -2.337152,-0.0912 0,-0.0772 0.873125,-1.01084 1.940277,-2.07468 1.678818,-1.67361 1.940278,-2.01192 1.940278,-2.51054 0,-0.31695 -0.0564,-0.57627 -0.12538,-0.57627 -0.069,0 -1.364398,1.23031 -2.878763,2.73403 -1.514364,1.50371 -2.828124,2.73403 -2.919466,2.73403 -0.09134,0 -1.390154,-1.226 -2.88625,-2.72443 z m -1.244308,1.57396 c 0,-0.22353 -1.467781,-1.65755 -1.607924,-1.57094 -0.181132,0.11195 -0.212403,1.37145 -0.03837,1.54548 0.13779,0.13779 1.646296,0.16112 1.646296,0.0255 z m 10.020207,-0.74571 c 0.0373,-0.51556 -0.0155,-0.74966 -0.16895,-0.74966 -0.25033,0 -1.560979,1.22298 -1.560979,1.45658 0,0.0826 0.377032,0.12606 0.837848,0.0965 l 0.837851,-0.0538 z m -2.832359,-2.21328 c 2.525579,-2.5213 2.866319,-2.9294 2.866319,-3.43295 0,-0.32102 -0.0911,-0.57148 -0.20782,-0.57148 -0.11431,0 -1.3875,1.17078 -2.829321,2.60173 -1.441821,1.43096 -2.72706,2.60174 -2.856087,2.60174 -0.129027,0 -1.441488,-1.17078 -2.916581,-2.60174 -1.475092,-1.43095 -2.755394,-2.60173 -2.845116,-2.60173 -0.08972,0 -0.16313,0.25709 -0.16313,0.57131 0,0.50296 0.342742,0.91454 2.864314,3.43959 1.575373,1.57754 2.944592,2.86528 3.042709,2.86163 0.09812,-0.004 1.468237,-1.29429 3.044713,-2.8681 z m 2.866319,-6.16325 c 0,-0.27459 -0.0971,-0.48702 -0.22269,-0.48702 -0.12248,0 -1.411333,1.19063 -2.864115,2.64584 -1.452783,1.45521 -2.722751,2.64583 -2.822151,2.64583 -0.0994,0 -1.404807,-1.22599 -2.900903,-2.72443 -1.496095,-1.49843 -2.784979,-2.68437 -2.864185,-2.63542 -0.07921,0.0489 -0.144011,0.34195 -0.144011,0.65111 0,0.49572 0.348966,0.89982 2.954513,3.42128 l 2.954514,2.85917 2.954514,-2.94467 c 2.397364,-2.38938 2.954514,-3.03651 2.954514,-3.43169 z"
       inkscape:path-effect="#path-effect2"
       transform="matrix(13.967761,0,0,15.043026,-1021.7188,-3101.1554)" />
  </g>
</svg>
